<svg width="30" height="32" viewBox="0 0 30 32" fill="none" xmlns="http://www.w3.org/2000/svg">
<path d="M29.3666 7.0285C29.3666 6.63522 29.129 6.28086 28.7653 6.13138L15.0667 0.503892C14.8306 0.406906 14.5658 0.406906 14.3296 0.503892L0.631098 6.13138C0.26734 6.2808 0.0297852 6.63522 0.0297852 7.0285V24.8338C0.0297852 25.2271 0.26728 25.5814 0.631098 25.7309L14.3296 31.3584C14.5633 31.4543 14.8258 31.4564 15.0655 31.3583C15.0772 31.3545 14.5586 31.5672 28.7653 25.7309C29.1291 25.5815 29.3666 25.2271 29.3666 24.8338V7.0285ZM14.6982 11.689L9.65079 9.61554L20.5587 4.85711L25.9437 7.06929L14.6982 11.689ZM1.9695 8.557L6.32423 10.346V15.3931C6.32423 15.9287 6.75849 16.363 7.29409 16.363C7.8297 16.363 8.26395 15.9287 8.26395 15.3931V11.1428L13.7283 13.3876V29.0143L1.9695 24.1837V8.557ZM14.6982 2.44949L18.0603 3.83069L7.15237 8.58913L3.45266 7.06923L14.6982 2.44949ZM15.668 13.3876L27.4269 8.557V24.1837L15.668 29.0143V13.3876Z" fill="white"/>
</svg>
