<svg width="38" height="38" viewBox="0 0 38 38" fill="none" xmlns="http://www.w3.org/2000/svg">
<path d="M0 26.3625V2.31558C0.00771875 1.89223 0.348531 1.55142 0.771875 1.5437H37.2281C37.6515 1.55142 37.9923 1.89223 38 2.31558V26.3625H0Z" fill="black"/>
<path d="M38 26.3625V29.45C37.9923 29.8734 37.6515 30.2142 37.2281 30.2219H0.771875C0.348531 30.2142 0.00771875 29.8734 0 29.45V26.3625H38Z" fill="#E2E2E2"/>
<path d="M27.1345 35.6844H10.8657V36.4563H27.1345V35.6844Z" fill="#E2E2E2"/>
<path d="M24.4029 35.6844H13.5967L14.3686 30.2219H23.6311L24.4029 35.6844Z" fill="#CECECE"/>
<path d="M36.4565 3.08752H1.54395V24.8188H36.4565V3.08752Z" fill="white"/>
<path d="M23.6311 30.2219H14.3686L13.9375 33.2708L23.77 31.2034L23.6311 30.2219Z" fill="#B7B7B7"/>
<path d="M32.4612 18.7292H29.895V19.4412H32.4612V18.7292Z" fill="#6B6B6B"/>
<path d="M19.4942 18.7292H15.6455V19.4412H19.4942V18.7292Z" fill="#E21B1B"/>
<path d="M11.7964 18.7292H6.66406V19.4412H11.7964V18.7292Z" fill="#C1C1C1"/>
<path d="M11.7964 13.5969H6.66406V14.3088H11.7964V13.5969Z" fill="#E21B1B"/>
<path d="M19.4952 13.5969H14.3628V14.3088H19.4952V13.5969Z" fill="#6B6B6B"/>
<path d="M25.9107 13.5969H20.7783V14.3088H25.9107V13.5969Z" fill="#C1C1C1"/>
<path d="M33.6083 13.5969H28.4766V14.3088H33.6083V13.5969Z" fill="#E21B1B"/>
<path d="M27.193 16.162H24.6274V16.8739H27.193V16.162Z" fill="#E21B1B"/>
<path d="M20.7785 16.1619H18.2129V16.8738H20.7785V16.1619Z" fill="#C1C1C1"/>
<path d="M12.9433 16.1619H8.11914V16.8738H12.9433V16.1619Z" fill="#E21B1B"/>
<path d="M19.4938 21.2948H6.66406V22.0067H19.4938V21.2948Z" fill="#6B6B6B"/>
<path d="M28.4727 21.2948H23.3403V22.0067H28.4727V21.2948Z" fill="#E21B1B"/>
<path d="M27.193 11.0312H24.6274V11.7432H27.193V11.0312Z" fill="#E21B1B"/>
<path d="M20.778 11.0312H18.2124V11.7432H20.778V11.0312Z" fill="#E21B1B"/>
<path d="M14.362 11.0312H6.66406V11.7432H14.362V11.0312Z" fill="#E21B1B"/>
<path d="M27.1938 5.89954H20.7783V6.61144H27.1938V5.89954Z" fill="#6B6B6B"/>
<path d="M18.2123 5.89954H15.6455V6.61144H18.2123V5.89954Z" fill="#E21B1B"/>
<path d="M33.6071 5.89954H31.0415V6.61144H33.6071V5.89954Z" fill="#E21B1B"/>
<path d="M13.0774 5.89954H5.37939V6.61144H13.0774V5.89954Z" fill="#C1C1C1"/>
<path d="M27.1959 8.46509H22.0635V9.17699H27.1959V8.46509Z" fill="#E21B1B"/>
<path d="M19.4938 8.46509H16.9282V9.17699H19.4938V8.46509Z" fill="#C1C1C1"/>
<path d="M11.7965 8.46509H4.09912V9.17699H11.7965V8.46509Z" fill="#6B6B6B"/>
</svg>
