<svg width="26" height="26" viewBox="0 0 26 26" fill="none" xmlns="http://www.w3.org/2000/svg">
<g clip-path="url(#clip0)">
<path d="M12.6238 0C5.69011 0 0 5.69011 0 12.6238C0 18.5406 4.15182 23.9154 9.6651 25.2476V21.0711C9.11882 21.1907 8.61607 21.1942 8.05996 21.0303C7.31393 20.8101 6.70774 20.3132 6.25777 19.5554C5.97096 19.0715 5.46262 18.5468 4.93233 18.5853L4.80231 17.1117C5.949 17.0135 6.94101 17.8104 7.52986 18.7997C7.79145 19.2397 8.09252 19.4976 8.47892 19.6116C8.85242 19.7216 9.25346 19.6688 9.72077 19.5037C9.83807 18.5682 10.2667 18.218 10.5905 17.7249V17.7241C7.30237 17.2337 5.99195 15.4893 5.47187 14.1124C4.78266 12.2842 5.1525 10.0003 6.37123 8.55693C6.39492 8.52881 6.43768 8.45523 6.42112 8.4038C5.86232 6.71583 6.54324 5.3195 6.56828 5.17137C7.21319 5.36207 7.31798 4.97952 9.36961 6.22599L9.72423 6.43903C9.87255 6.52745 9.82594 6.47698 9.97426 6.46581C10.8309 6.23312 11.7339 6.10464 12.6236 6.09308C13.5201 6.10464 14.4173 6.23312 15.3094 6.47524L15.4242 6.4868C15.4142 6.48526 15.4554 6.47948 15.5245 6.43826C18.0874 4.88591 17.9953 5.39328 18.6826 5.16983C18.7074 5.31815 19.3793 6.73721 18.8265 8.4038C18.7519 8.6334 21.0484 10.7363 19.7755 14.1118C19.2555 15.4893 17.9452 17.2337 14.6571 17.7241V17.7249C15.0786 18.3673 15.585 18.709 15.5823 20.0342V25.2476C21.0958 23.9154 25.2474 18.5406 25.2474 12.6238C25.2476 5.69011 19.5575 0 12.6238 0V0Z" fill="#F8C826"/>
</g>
<defs>
<clipPath id="clip0">
<rect width="25.2476" height="25.2476" fill="white"/>
</clipPath>
</defs>
</svg>
