<?xml version="1.0" encoding="UTF-8"?>
<svg xmlns="http://www.w3.org/2000/svg" xmlns:xlink="http://www.w3.org/1999/xlink" width="32pt" height="32pt" viewBox="0 0 32 32" version="1.1">
<g id="surface913">
<path style=" stroke:none;fill-rule:nonzero;fill:rgb(0%,0%,0%);fill-opacity:1;" d="M 12.5 1 C 9.46875 1 7 3.46875 7 6.5 C 7 8.15625 7.742188 9.644531 8.90625 10.652344 C 7.175781 11.582031 6 13.40625 6 15.5 C 6 17.359375 6.933594 19.003906 8.347656 20 C 6.933594 20.996094 6 22.640625 6 24.5 C 6 27.53125 8.46875 30 11.5 30 C 14.53125 30 17 27.53125 17 24.5 L 17 12 L 20.5 12 C 23.53125 12 26 9.53125 26 6.5 C 26 3.46875 23.53125 1 20.5 1 Z M 12.5 3 L 20.5 3 C 22.429688 3 24 4.570312 24 6.5 C 24 8.429688 22.429688 10 20.5 10 L 12.5 10 C 10.570312 10 9 8.429688 9 6.5 C 9 4.570312 10.570312 3 12.5 3 Z M 11.5 12 L 15 12 L 15 19 L 11.5 19 C 9.570312 19 8 17.429688 8 15.5 C 8 13.570312 9.570312 12 11.5 12 Z M 21 12 C 18.789062 12 17 13.789062 17 16 C 17 18.210938 18.789062 20 21 20 C 23.210938 20 25 18.210938 25 16 C 25 13.789062 23.210938 12 21 12 Z M 11.5 21 L 15 21 L 15 24.5 C 15 26.429688 13.429688 28 11.5 28 C 9.570312 28 8 26.429688 8 24.5 C 8 22.570312 9.570312 21 11.5 21 Z M 11.5 21 "/>
</g>
</svg>
