<?xml version="1.0" encoding="UTF-8"?>
<svg xmlns="http://www.w3.org/2000/svg" xmlns:xlink="http://www.w3.org/1999/xlink" width="24pt" height="24pt" viewBox="0 0 24 24" version="1.1">
<g id="surface2487">
<path style=" stroke:none;fill-rule:nonzero;fill:rgb(0%,0%,0%);fill-opacity:1;" d="M 15.230469 11.230469 C 14.925781 11.230469 14.703125 11.355469 14.5625 11.601562 C 14.421875 11.847656 14.351562 12.285156 14.351562 12.914062 L 14.351562 13.351562 C 14.351562 13.976562 14.417969 14.414062 14.550781 14.660156 C 14.683594 14.910156 14.90625 15.035156 15.226562 15.035156 C 15.554688 15.035156 15.800781 14.886719 15.96875 14.59375 L 15.96875 11.699219 C 15.804688 11.386719 15.558594 11.230469 15.230469 11.230469 Z M 19 3 L 5 3 C 3.894531 3 3 3.894531 3 5 L 3 19 C 3 20.105469 3.894531 21 5 21 L 19 21 C 20.105469 21 21 20.105469 21 19 L 21 5 C 21 3.894531 20.105469 3 19 3 Z M 10.273438 16.300781 L 9.101562 13.316406 L 7.9375 16.300781 L 5.9375 16.300781 L 7.988281 12 L 5.980469 7.769531 L 7.953125 7.769531 L 9.101562 10.699219 L 10.25 7.769531 L 12.226562 7.769531 L 10.222656 12 L 12.273438 16.300781 Z M 17.640625 16.300781 L 16.132812 16.300781 L 16.058594 15.65625 C 15.71875 16.164062 15.28125 16.417969 14.746094 16.417969 C 14.082031 16.417969 13.574219 16.164062 13.222656 15.65625 C 12.875 15.148438 12.695312 14.402344 12.6875 13.417969 L 12.6875 12.9375 C 12.6875 11.898438 12.863281 11.121094 13.214844 10.609375 C 13.566406 10.097656 14.078125 9.84375 14.75 9.84375 C 15.238281 9.84375 15.644531 10.054688 15.96875 10.476562 L 15.96875 7.300781 L 17.640625 7.300781 Z M 17.640625 16.300781 "/>
</g>
</svg>
