<?xml version="1.0" encoding="UTF-8"?>
<svg xmlns="http://www.w3.org/2000/svg" xmlns:xlink="http://www.w3.org/1999/xlink" width="32pt" height="32pt" viewBox="0 0 32 32" version="1.1">
<g id="surface798">
<path style=" stroke:none;fill-rule:nonzero;fill:rgb(0%,0%,0%);fill-opacity:1;" d="M 13.550781 5.5 C 11.425781 5.5 9.699219 7.226562 9.699219 9.351562 C 9.699219 10.511719 10.21875 11.550781 11.03125 12.257812 C 9.824219 12.90625 9 14.183594 9 15.648438 C 9 16.953125 9.652344 18.101562 10.644531 18.800781 C 9.652344 19.496094 9 20.648438 9 21.949219 C 9 24.074219 10.726562 25.800781 12.851562 25.800781 C 14.972656 25.800781 16.699219 24.074219 16.699219 21.949219 L 16.699219 13.199219 L 19.148438 13.199219 C 21.273438 13.199219 23 11.472656 23 9.351562 C 23 7.226562 21.273438 5.5 19.148438 5.5 Z M 13.550781 6.898438 L 19.148438 6.898438 C 20.5 6.898438 21.601562 8 21.601562 9.351562 C 21.601562 10.699219 20.5 11.800781 19.148438 11.800781 L 13.550781 11.800781 C 12.199219 11.800781 11.101562 10.699219 11.101562 9.351562 C 11.101562 8 12.199219 6.898438 13.550781 6.898438 Z M 12.851562 13.199219 L 15.300781 13.199219 L 15.300781 18.101562 L 12.851562 18.101562 C 11.5 18.101562 10.398438 17 10.398438 15.648438 C 10.398438 14.300781 11.5 13.199219 12.851562 13.199219 Z M 19.5 13.199219 C 17.953125 13.199219 16.699219 14.453125 16.699219 16 C 16.699219 17.546875 17.953125 18.800781 19.5 18.800781 C 21.046875 18.800781 22.300781 17.546875 22.300781 16 C 22.300781 14.453125 21.046875 13.199219 19.5 13.199219 Z M 12.851562 19.5 L 15.300781 19.5 L 15.300781 21.949219 C 15.300781 23.300781 14.199219 24.398438 12.851562 24.398438 C 11.5 24.398438 10.398438 23.300781 10.398438 21.949219 C 10.398438 20.597656 11.5 19.5 12.851562 19.5 Z M 12.851562 19.5 "/>
</g>
</svg>
