<svg width="26" height="26" viewBox="0 0 26 26" fill="none" xmlns="http://www.w3.org/2000/svg">
<g clip-path="url(#clip0)">
<path d="M15.7925 12.6238C15.7925 13.9583 14.7107 15.0401 13.3762 15.0401C12.0417 15.0401 10.96 13.9583 10.96 12.6238C10.96 11.2893 12.0417 10.2075 13.3762 10.2075C14.7107 10.2075 15.7925 11.2893 15.7925 12.6238Z" fill="#F8C826"/>
<path d="M19.0273 8.3487C18.9111 8.03395 18.7258 7.74906 18.485 7.51521C18.2512 7.27443 17.9665 7.08913 17.6515 6.97298C17.3961 6.87378 17.0124 6.7557 16.3057 6.72353C15.5411 6.68866 15.3119 6.68115 13.3764 6.68115C11.4408 6.68115 11.2115 6.68847 10.4472 6.72334C9.74046 6.7557 9.35656 6.87378 9.10133 6.97298C8.78639 7.08913 8.5015 7.27443 8.26785 7.51521C8.02707 7.74906 7.84176 8.03376 7.72542 8.3487C7.62622 8.60412 7.50814 8.98802 7.47597 9.69476C7.44111 10.4591 7.43359 10.6883 7.43359 12.624C7.43359 14.5595 7.44111 14.7887 7.47597 15.5532C7.50814 16.26 7.62622 16.6437 7.72542 16.8991C7.84176 17.214 8.02688 17.4987 8.26766 17.7326C8.5015 17.9734 8.7862 18.1587 9.10114 18.2748C9.35656 18.3742 9.74046 18.4923 10.4472 18.5245C11.2115 18.5593 11.4406 18.5666 13.3762 18.5666C15.3121 18.5666 15.5413 18.5593 16.3055 18.5245C17.0122 18.4923 17.3961 18.3742 17.6515 18.2748C18.2837 18.0309 18.7834 17.5313 19.0273 16.8991C19.1265 16.6437 19.2445 16.26 19.2769 15.5532C19.3118 14.7887 19.3191 14.5595 19.3191 12.624C19.3191 10.6883 19.3118 10.4591 19.2769 9.69476C19.2447 8.98802 19.1266 8.60412 19.0273 8.3487ZM13.3764 16.3461C11.3206 16.3461 9.65397 14.6797 9.65397 12.6238C9.65397 10.5679 11.3206 8.90153 13.3764 8.90153C15.4321 8.90153 17.0987 10.5679 17.0987 12.6238C17.0987 14.6797 15.4321 16.3461 13.3764 16.3461ZM17.2459 9.62426C16.7655 9.62426 16.376 9.23477 16.376 8.75437C16.376 8.27396 16.7655 7.88447 17.2459 7.88447C17.7263 7.88447 18.1158 8.27396 18.1158 8.75437C18.1156 9.23477 17.7263 9.62426 17.2459 9.62426Z" fill="#F8C826"/>
<path d="M13.3762 0C6.40538 0 0.752441 5.65293 0.752441 12.6238C0.752441 19.5947 6.40538 25.2476 13.3762 25.2476C20.3471 25.2476 26 19.5947 26 12.6238C26 5.65293 20.3471 0 13.3762 0ZM20.5813 15.6124C20.5463 16.384 20.4236 16.9108 20.2444 17.372C19.8679 18.3457 19.0981 19.1154 18.1244 19.492C17.6635 19.6711 17.1365 19.7936 16.365 19.8289C15.592 19.8641 15.3451 19.8726 13.3764 19.8726C11.4076 19.8726 11.1609 19.8641 10.3877 19.8289C9.61622 19.7936 9.0892 19.6711 8.62825 19.492C8.14438 19.31 7.70636 19.0247 7.34422 18.6558C6.97554 18.2939 6.69027 17.8557 6.50824 17.372C6.3291 16.911 6.20639 16.384 6.17134 15.6126C6.1357 14.8394 6.12742 14.5924 6.12742 12.6238C6.12742 10.6552 6.1357 10.4082 6.17114 9.63524C6.2062 8.86359 6.32871 8.33676 6.50785 7.87562C6.68988 7.39194 6.97535 6.95372 7.34422 6.59178C7.70616 6.22291 8.14438 5.93763 8.62806 5.7556C9.0892 5.57646 9.61603 5.45395 10.3877 5.4187C11.1607 5.38345 11.4076 5.37498 13.3762 5.37498C15.3449 5.37498 15.5918 5.38345 16.3648 5.4189C17.1365 5.45395 17.6633 5.57646 18.1244 5.75541C18.6081 5.93744 19.0463 6.22291 19.4085 6.59178C19.7771 6.95392 20.0626 7.39194 20.2444 7.87562C20.4238 8.33676 20.5463 8.86359 20.5815 9.63524C20.6168 10.4082 20.6251 10.6552 20.6251 12.6238C20.6251 14.5924 20.6168 14.8394 20.5813 15.6124Z" fill="#F8C826"/>
</g>
<defs>
<clipPath id="clip0">
<rect x="0.752441" width="25.2476" height="25.2476" fill="white"/>
</clipPath>
</defs>
</svg>
