<svg width="26" height="26" viewBox="0 0 26 26" fill="none" xmlns="http://www.w3.org/2000/svg">
<g clip-path="url(#clip0)">
<path d="M21.9242 0H4.07338C2.03426 0 0.375 1.65926 0.375 3.69838V21.5492C0.375 23.5883 2.03426 25.2476 4.07338 25.2476H21.9242C23.9633 25.2476 25.6226 23.5883 25.6226 21.5492V3.69838C25.6226 1.65926 23.9633 0 21.9242 0ZM9.30042 20.0206H6.34172V9.6651H9.30042V20.0206ZM9.30042 8.18575H6.34172V5.22704H9.30042V8.18575ZM19.6559 20.0206H16.6972V14.1032C16.6972 13.2876 16.0334 12.6238 15.2178 12.6238C14.4023 12.6238 13.7385 13.2876 13.7385 14.1032V20.0206H10.7798V9.6651H13.7385V10.2227C14.5136 9.98177 15.0171 9.6651 15.9575 9.6651C17.9641 9.66722 19.6559 11.4673 19.6559 13.5946V20.0206Z" fill="#F8C826"/>
</g>
<defs>
<clipPath id="clip0">
<rect x="0.375" width="25.2476" height="25.2476" fill="white"/>
</clipPath>
</defs>
</svg>
